<svg version="1.0" xmlns="http://www.w3.org/2000/svg"
 width="25" height="25" viewBox="0 0 564.000000 768.000000"
 preserveAspectRatio="xMidYMid meet">

<g transform="translate(0.000000,768.000000) scale(0.100000,-0.100000)"
fill="#000000" stroke="none">
<path d="M1247 5333 c-4 -3 -7 -82 -7 -174 l0 -169 -172 -2 -173 -3 -3 -172
-2 -173 -173 -2 -172 -3 -3 -522 -2 -523 175 0 175 0 0 -175 0 -175 175 0 175
0 0 -175 0 -175 178 -2 177 -3 3 -172 2 -173 168 -2 167 -3 3 -167 2 -166 38
-6 c20 -3 98 -5 172 -4 l135 1 5 -174 5 -174 173 -3 172 -2 0 -175 0 -175 175
0 175 0 0 175 0 175 175 0 c175 0 175 0 176 23 0 12 0 89 -1 171 -1 114 2 151
12 157 7 5 67 6 133 2 67 -3 142 -3 168 1 l47 7 0 170 0 169 170 0 170 0 0
175 0 175 175 0 175 0 0 175 0 175 175 0 175 0 0 175 0 175 175 0 174 0 3 503
c2 276 1 512 -1 525 -3 23 -5 23 -155 22 -83 -1 -161 -1 -173 0 -23 0 -23 0
-23 175 l0 175 -175 0 -175 0 0 175 0 175 -520 0 -520 0 -2 -142 c-1 -79 -2
-156 -2 -173 l-1 -30 -175 -5 -175 -5 -3 -172 -2 -173 -175 0 -175 0 0 175 0
175 -170 0 -170 0 0 175 0 175 -523 0 c-288 0 -527 -3 -530 -7z m701 -870 l-3
-178 -172 -3 -173 -2 -2 -173 -3 -172 -177 -3 -178 -2 0 355 0 355 355 0 355
0 -2 -177z"/>
</g>
</svg>