<svg height="32" viewBox="0 0 128 128" width="32" xmlns="http://www.w3.org/2000/svg" fill="#fff">
	<g>
		<path
			d="m104.247 35.742a9.6 9.6 0 0 0 -16.7-6.682l-38.159 42.049a15.938 15.938 0 0 0 -14.8 2.136 10.584 10.584 0 0 0 -1.779 1.688 14.075 14.075 0 0 0 -2.729 12.286c.908 3.921.048 6.876-2.556 8.783l-3.055 2.236a1.75 1.75 0 0 0 .685 3.127 69.1 69.1 0 0 0 12.508 1.2c5.419 0 11.472-.772 15.688-3.552a14.773 14.773 0 0 0 6.4-9.842 16.29 16.29 0 0 0 -.723-8.369l42.073-38.186a9.511 9.511 0 0 0 3.147-6.874zm-47.942 52.8a11.3 11.3 0 0 1 -4.885 7.54c-5.64 3.72-15.815 3.157-21.481 2.473 3.468-2.749 4.727-7.037 3.548-12.129a10.569 10.569 0 0 1 1.984-9.226 7.162 7.162 0 0 1 1.182-1.133 12.439 12.439 0 0 1 17.382 2.686 12.818 12.818 0 0 1 2.27 9.793zm.554-11.86a15.838 15.838 0 0 0 -4.217-3.956l4.249-4.683 5.222 5.223-4.7 4.263c-.18-.28-.354-.569-.554-.843zm41.891-36.658-34.042 30.892-5.462-5.462 30.891-34.042a6.1 6.1 0 1 1 8.613 8.612z"
		/>
		<path
			d="m45.465 76.3c-6.914-.693-9.505 4.352-9.905 7.116a1.743 1.743 0 0 0 1.468 1.973 1.7 1.7 0 0 0 .264.021 1.758 1.758 0 0 0 1.729-1.48c.126-.782 1.007-4.65 6.1-4.147a1.75 1.75 0 1 0 .347-3.483z"
		/>
	</g>
</svg>
