<svg version="1.1" id="Capa_1" xmlns="http://www.w3.org/2000/svg" xmlns:xlink="http://www.w3.org/1999/xlink" x="0px" y="0px"
	 viewBox="0 0 512.139 512.139" style="enable-background:new 0 0 512.139 512.139;" xml:space="preserve" width='10' height='10'>
<g>
	<g>
		<g>
			<path d="M109.534,86.707l-20.96-24.176c-8.592,7.461-16.684,15.478-24.224,24l24,21.184
				C94.946,100.258,102.023,93.24,109.534,86.707z"/>
			<path d="M70.078,131.331l-26.576-17.84c-6.337,9.457-12.04,19.324-17.072,29.536l28.704,14.128
				C59.538,148.226,64.531,139.599,70.078,131.331z"/>
			<path d="M337.525,13.34C311.31,4.541,283.843,0.048,256.19,0.035c-49.905-0.075-98.734,14.501-140.432,41.92l17.6,26.736
				C169.83,44.709,212.54,31.963,256.19,32.035c123.597,0.116,223.698,100.404,223.583,224.001
				c-0.116,123.597-100.404,223.698-224.001,223.583S32.073,379.214,32.189,255.617c0.023-24.09,3.935-48.019,11.585-70.863
				l-30.4-10.176C-31.612,308.616,40.577,453.743,174.614,498.73c134.037,44.987,279.164-27.202,324.151-161.239
				S471.562,58.327,337.525,13.34z"/>
			<path d="M256.19,128.035c36.35,0.076,70.956,15.588,95.2,42.672l23.824-21.344c-58.913-65.861-160.063-71.494-225.924-12.58
				c-65.861,58.913-71.494,160.063-12.58,225.924s160.063,71.493,225.924,12.58c4.423-3.957,8.623-8.157,12.58-12.58l-23.824-21.344
				c-47.125,52.694-128.045,57.207-180.738,10.082c-52.694-47.125-57.207-128.045-10.082-180.738
				C184.902,143.5,219.691,127.975,256.19,128.035z"/>
		</g>
	</g>
</g>
<g>
</g>
<g>
</g>
<g>
</g>
<g>
</g>
<g>
</g>
<g>
</g>
<g>
</g>
<g>
</g>
<g>
</g>
<g>
</g>
<g>
</g>
<g>
</g>
<g>
</g>
<g>
</g>
<g>
</g>
</svg>